<?xml version="1.0" standalone="no"?>
<!DOCTYPE svg PUBLIC "-//W3C//DTD SVG 20010904//EN"
 "http://www.w3.org/TR/2001/REC-SVG-20010904/DTD/svg10.dtd">
<svg version="1.0" xmlns="http://www.w3.org/2000/svg"
 width="256.000000pt" height="256.000000pt" viewBox="0 0 256.000000 256.000000"
 preserveAspectRatio="xMidYMid meet">
<metadata>
Created by potrace 1.13, written by Peter Selinger 2001-2015
</metadata>
<g transform="translate(0.000000,256.000000) scale(0.100000,-0.100000)"
fill="#000000" stroke="none">
<path d="M867 2522 c-14 -15 -17 -42 -17 -160 l0 -142 -30 0 c-71 0 -156 -61
-191 -135 -18 -38 -19 -85 -19 -971 l0 -932 28 -53 c20 -39 41 -62 77 -84 l48
-30 491 -3 c430 -2 496 -1 533 13 61 24 93 52 119 109 l24 51 0 930 c0 881 -1
932 -19 970 -21 45 -61 89 -106 113 -26 15 -77 17 -387 20 l-357 3 -3 145 c-4
173 -4 174 -108 174 -52 0 -71 -4 -83 -18z m810 -555 c51 -27 81 -67 93 -119
12 -60 13 -418 0 -472 -11 -48 -36 -84 -80 -114 -33 -22 -35 -22 -425 -22
l-392 0 -40 29 c-71 52 -74 67 -71 354 l3 254 28 36 c30 40 55 56 102 68 17 4
192 7 390 6 323 -2 363 -4 392 -20z m-609 -913 c27 -6 30 -10 35 -57 2 -28 0
-66 -5 -84 l-9 -33 -67 0 c-40 0 -73 5 -80 12 -7 7 -12 41 -12 80 0 62 2 70
23 78 26 10 73 12 115 4z m281 -9 c12 -7 15 -105 5 -142 -6 -21 -12 -23 -84
-23 -90 0 -90 0 -90 96 0 58 2 66 23 74 23 10 128 7 146 -5z m235 5 c24 -9 26
-14 26 -74 0 -96 0 -96 -90 -96 -88 0 -90 1 -90 95 0 53 6 69 30 78 25 9 97 8
124 -3z m-482 -278 c4 -24 4 -60 0 -80 -9 -44 -41 -57 -118 -47 l-54 6 0 78
c0 43 3 81 7 85 4 4 41 5 82 4 l76 -3 7 -43z m253 15 c4 -17 5 -54 3 -82 -3
-48 -4 -50 -41 -58 -21 -5 -58 -5 -85 0 l-47 8 -3 69 c-2 38 -1 75 2 83 4 9
27 13 85 13 l80 0 6 -33z m249 17 c9 -24 7 -127 -3 -143 -14 -21 -148 -22
-161 -1 -14 22 -12 134 2 148 7 7 41 12 84 12 56 0 73 -3 78 -16z m-507 -241
c9 -36 9 -90 0 -125 -7 -26 -11 -28 -65 -28 -102 0 -102 1 -102 90 0 90 -3 87
97 89 60 1 63 0 70 -26z m244 17 c16 -9 19 -22 19 -75 0 -82 -12 -95 -90 -95
-77 0 -90 13 -90 90 0 76 14 90 86 90 31 0 64 -5 75 -10z m250 0 c16 -9 19
-22 19 -81 0 -65 -1 -70 -26 -79 -14 -6 -51 -10 -83 -10 -67 0 -71 5 -71 93 0
76 10 87 81 87 33 0 69 -5 80 -10z m-490 -275 c4 -22 4 -58 0 -80 l-7 -40 -79
0 -80 0 -3 74 c-2 53 1 77 10 83 7 4 44 7 83 6 l70 -3 6 -40z m253 29 c8 -20
8 -118 0 -138 -9 -23 -159 -23 -168 0 -8 20 -8 118 0 138 9 23 159 23 168 0z
m250 0 c8 -20 8 -118 0 -138 -5 -13 -22 -16 -84 -16 -89 0 -90 1 -90 85 0 84
1 85 90 85 62 0 79 -3 84 -16z"/>
</g>
</svg>
